<?xml version="1.0" encoding="UTF-8" standalone="no"?>
<svg
   xmlns:dc="http://purl.org/dc/elements/1.1/"
   xmlns:cc="http://creativecommons.org/ns#"
   xmlns:rdf="http://www.w3.org/1999/02/22-rdf-syntax-ns#"
   xmlns:svg="http://www.w3.org/2000/svg"
   xmlns="http://www.w3.org/2000/svg"
   xmlns:xlink="http://www.w3.org/1999/xlink"
   xmlns:sodipodi="http://sodipodi.sourceforge.net/DTD/sodipodi-0.dtd"
   xmlns:inkscape="http://www.inkscape.org/namespaces/inkscape"
   xml:space="preserve"
   version="1.1"
   overflow="visible"
   viewBox="0 0 88 31"
   id="svg477"
   sodipodi:docname="valid-css3.svg"
   inkscape:version="0.92.4 (5da689c313, 2019-01-14)"><metadata
   id="metadata483"><rdf:RDF><cc:Work
       rdf:about=""><dc:format>image/svg+xml</dc:format><dc:type
         rdf:resource="http://purl.org/dc/dcmitype/StillImage" /><dc:title></dc:title></cc:Work></rdf:RDF></metadata><defs
   id="defs481">
    
    
    
    
    
  
      
      
      
      
      
      
      
      
      
      
      
      
      
      
      
    </defs><sodipodi:namedview
   pagecolor="#ffffff"
   bordercolor="#666666"
   borderopacity="1"
   objecttolerance="10"
   gridtolerance="10"
   guidetolerance="10"
   inkscape:pageopacity="0"
   inkscape:pageshadow="2"
   inkscape:window-width="1920"
   inkscape:window-height="1017"
   id="namedview479"
   showgrid="false"
   inkscape:zoom="16"
   inkscape:cx="42.885346"
   inkscape:cy="17.137327"
   inkscape:window-x="-8"
   inkscape:window-y="-8"
   inkscape:window-maximized="1"
   inkscape:current-layer="svg477" />
  <g
   style="image-rendering:optimizeQuality;shape-rendering:geometricPrecision;text-rendering:geometricPrecision"
   id="Background">
    </g><g
   style="image-rendering:optimizeQuality;shape-rendering:geometricPrecision;text-rendering:geometricPrecision"
   id="Guides">
    </g><g
   style="image-rendering:optimizeQuality;shape-rendering:geometricPrecision;text-rendering:geometricPrecision"
   id="g8">
        <polygon
   points="0,0 88,0 88,31 0,31 "
   id="polygon4"
   style="fill:none" />
        <path
   d="M 44,15.5"
   id="path6"
   inkscape:connector-curvature="0"
   style="fill:none" />
      </g><g
   style="image-rendering:optimizeQuality;shape-rendering:geometricPrecision;text-rendering:geometricPrecision"
   id="g14">
        <polygon
   points="0,0 83,0 83,31 0,31 "
   id="polygon10"
   style="fill:#ffcc66" />
        <path
   d="M 41.5,15.5"
   id="path12"
   inkscape:connector-curvature="0"
   style="fill:#ffcc66" />
      </g><g
   style="image-rendering:optimizeQuality;shape-rendering:geometricPrecision;text-rendering:geometricPrecision"
   id="g20">
        <polygon
   points="0.365,0 36.809,0 36.809,31 0.365,31 "
   id="polygon16"
   style="fill:#ffffff" />
        <path
   d="M 18.587,15.5"
   id="path18"
   inkscape:connector-curvature="0"
   style="fill:#ffffff" />
      </g><g
   style="image-rendering:optimizeQuality;shape-rendering:geometricPrecision;text-rendering:geometricPrecision"
   id="g26">
        <polygon
   points="4.692,2.291 44.697,2.291 44.697,26.897 4.692,26.897 "
   id="polygon22"
   style="fill:none" />
        <path
   d="M 24.695,14.594"
   id="path24"
   inkscape:connector-curvature="0"
   style="fill:none" />
      </g><g
   style="image-rendering:optimizeQuality;shape-rendering:geometricPrecision;text-rendering:geometricPrecision"
   id="g58">
        <g
   id="g56">
          <defs
   id="defs29">
            <polygon
   points="0,30 83,30 83,31 0,31 "
   id="XMLID_1240_" />
          </defs>
          <use
   xlink:href="#XMLID_1240_"
   id="use31"
   style="fill:#504d4c"
   x="0"
   y="0"
   width="100%"
   height="100%" />
          <clipPath
   id="XMLID_1266_">
            <use
   xlink:href="#XMLID_1240_"
   id="use33"
   x="0"
   y="0"
   width="100%"
   height="100%" />
          </clipPath>
          <g
   clip-path="url(#XMLID_1266_)"
   id="g54">
            <g
   id="g40">
              <polygon
   points="0,0 88,0 88,31 0,31 "
   id="polygon36"
   style="fill:none" />
              <path
   d="M 44,15.5"
   id="path38"
   inkscape:connector-curvature="0"
   style="fill:none" />
            </g>
            <g
   id="g46">
              <polygon
   points="0,0 83,0 83,31 0,31 "
   id="polygon42"
   style="fill:#4e4b3f" />
              <path
   d="M 41.5,15.5"
   id="path44"
   inkscape:connector-curvature="0"
   style="fill:#4e4b3f" />
            </g>
            <g
   id="g52">
              <polygon
   points="0.365,0 36.809,0 36.809,31 0.365,31 "
   id="polygon48"
   style="fill:#4f4f4f" />
              <path
   d="M 18.587,15.5"
   id="path50"
   inkscape:connector-curvature="0"
   style="fill:#4f4f4f" />
            </g>
          </g>
        </g>
      </g><g
   style="image-rendering:optimizeQuality;shape-rendering:geometricPrecision;text-rendering:geometricPrecision"
   id="g116">
        <g
   id="g114">
          <defs
   id="defs61">
            <polygon
   points="82,0 83,0 83,31 82,31 "
   id="XMLID_1242_" />
          </defs>
          <use
   xlink:href="#XMLID_1242_"
   id="use63"
   style="fill:#504d4c"
   x="0"
   y="0"
   width="100%"
   height="100%" />
          <clipPath
   id="XMLID_1267_">
            <use
   xlink:href="#XMLID_1242_"
   id="use65"
   x="0"
   y="0"
   width="100%"
   height="100%" />
          </clipPath>
          <g
   clip-path="url(#XMLID_1267_)"
   id="g112">
            <g
   id="g72">
              <polygon
   points="0,0 88,0 88,31 0,31 "
   id="polygon68"
   style="fill:none" />
              <path
   d="M 44,15.5"
   id="path70"
   inkscape:connector-curvature="0"
   style="fill:none" />
            </g>
            <g
   id="g78">
              <polygon
   points="0,0 83,0 83,31 0,31 "
   id="polygon74"
   style="fill:#4e4b3f" />
              <path
   d="M 41.5,15.5"
   id="path76"
   inkscape:connector-curvature="0"
   style="fill:#4e4b3f" />
            </g>
            <g
   id="g110">
              <g
   id="g108">
                <defs
   id="defs81">
                  <polygon
   points="0,30 83,30 83,31 0,31 "
   id="XMLID_1244_" />
                </defs>
                <use
   xlink:href="#XMLID_1244_"
   id="use83"
   style="fill:#191919"
   x="0"
   y="0"
   width="100%"
   height="100%" />
                <clipPath
   id="XMLID_1268_">
                  <use
   xlink:href="#XMLID_1244_"
   id="use85"
   x="0"
   y="0"
   width="100%"
   height="100%" />
                </clipPath>
                <g
   clip-path="url(#XMLID_1268_)"
   id="g106">
                  <g
   id="g92">
                    <polygon
   points="0,0 88,0 88,31 0,31 "
   id="polygon88"
   style="fill:none" />
                    <path
   d="M 44,15.5"
   id="path90"
   inkscape:connector-curvature="0"
   style="fill:none" />
                  </g>
                  <g
   id="g98">
                    <polygon
   points="0,0 83,0 83,31 0,31 "
   id="polygon94"
   style="fill:#191917" />
                    <path
   d="M 41.5,15.5"
   id="path96"
   inkscape:connector-curvature="0"
   style="fill:#191917" />
                  </g>
                  <g
   id="g104">
                    <polygon
   points="0.366,0 36.809,0 36.809,31 0.366,31 "
   id="polygon100"
   style="fill:#191919" />
                    <path
   d="M 18.587,15.5"
   id="path102"
   inkscape:connector-curvature="0"
   style="fill:#191919" />
                  </g>
                </g>
              </g>
            </g>
          </g>
        </g>
      </g><g
   style="image-rendering:optimizeQuality;shape-rendering:geometricPrecision;text-rendering:geometricPrecision"
   id="g122">
        <polygon
   points="0,0 1,0 1,31 0,31 "
   id="polygon118"
   style="fill:#cccccc" />
        <path
   d="M 0.5,15.5"
   id="path120"
   inkscape:connector-curvature="0"
   style="fill:#cccccc" />
      </g><g
   style="image-rendering:optimizeQuality;shape-rendering:geometricPrecision;text-rendering:geometricPrecision"
   id="g244">
        <g
   id="g242">
          <defs
   id="defs125">
            <polygon
   points="2.16,29.005 82.16,29.005 82.16,30.005 2.16,30.005 "
   id="XMLID_1246_" />
          </defs>
          <use
   xlink:href="#XMLID_1246_"
   id="use127"
   style="fill:#9e9c9c"
   x="0"
   y="0"
   width="100%"
   height="100%" />
          <clipPath
   id="XMLID_1269_">
            <use
   xlink:href="#XMLID_1246_"
   id="use129"
   x="0"
   y="0"
   width="100%"
   height="100%" />
          </clipPath>
          <g
   clip-path="url(#XMLID_1269_)"
   id="g240">
            <g
   id="g136">
              <polygon
   points="0,0 88,0 88,31 0,31 "
   id="polygon132"
   style="fill:none" />
              <path
   d="M 44,15.5"
   id="path134"
   inkscape:connector-curvature="0"
   style="fill:none" />
            </g>
            <g
   id="g142">
              <polygon
   points="0,0 83,0 83,31 0,31 "
   id="polygon138"
   style="fill:#b39f67" />
              <path
   d="M 41.5,15.5"
   id="path140"
   inkscape:connector-curvature="0"
   style="fill:#b39f67" />
            </g>
            <g
   id="g148">
              <polygon
   points="0.365,0 36.809,0 36.809,31 0.365,31 "
   id="polygon144"
   style="fill:#b5b5b5" />
              <path
   d="M 18.587,15.5"
   id="path146"
   inkscape:connector-curvature="0"
   style="fill:#b5b5b5" />
            </g>
            <g
   id="g180">
              <g
   id="g178">
                <defs
   id="defs151">
                  <polygon
   points="0,30 83,30 83,31 0,31 "
   id="XMLID_1248_" />
                </defs>
                <use
   xlink:href="#XMLID_1248_"
   id="use153"
   style="fill:#383838"
   x="0"
   y="0"
   width="100%"
   height="100%" />
                <clipPath
   id="XMLID_1270_">
                  <use
   xlink:href="#XMLID_1248_"
   id="use155"
   x="0"
   y="0"
   width="100%"
   height="100%" />
                </clipPath>
                <g
   clip-path="url(#XMLID_1270_)"
   id="g176">
                  <g
   id="g162">
                    <polygon
   points="0,0 88,0 88,31 0,31 "
   id="polygon158"
   style="fill:none" />
                    <path
   d="M 44,15.5"
   id="path160"
   inkscape:connector-curvature="0"
   style="fill:none" />
                  </g>
                  <g
   id="g168">
                    <polygon
   points="0,0 83,0 83,31 0,31 "
   id="polygon164"
   style="fill:#383530" />
                    <path
   d="M 41.5,15.5"
   id="path166"
   inkscape:connector-curvature="0"
   style="fill:#383530" />
                  </g>
                  <g
   id="g174">
                    <polygon
   points="0.366,0 36.809,0 36.809,31 0.366,31 "
   id="polygon170"
   style="fill:#383838" />
                    <path
   d="M 18.587,15.5"
   id="path172"
   inkscape:connector-curvature="0"
   style="fill:#383838" />
                  </g>
                </g>
              </g>
            </g>
            <g
   id="g238">
              <g
   id="g236">
                <defs
   id="defs183">
                  <polygon
   points="82,0 83,0 83,31 82,31 "
   id="XMLID_1250_" />
                </defs>
                <use
   xlink:href="#XMLID_1250_"
   id="use185"
   style="fill:#383838"
   x="0"
   y="0"
   width="100%"
   height="100%" />
                <clipPath
   id="XMLID_1271_">
                  <use
   xlink:href="#XMLID_1250_"
   id="use187"
   x="0"
   y="0"
   width="100%"
   height="100%" />
                </clipPath>
                <g
   clip-path="url(#XMLID_1271_)"
   id="g234">
                  <g
   id="g194">
                    <polygon
   points="0,0 88,0 88,31 0,31 "
   id="polygon190"
   style="fill:none" />
                    <path
   d="M 44,15.5"
   id="path192"
   inkscape:connector-curvature="0"
   style="fill:none" />
                  </g>
                  <g
   id="g200">
                    <polygon
   points="0,0 83,0 83,31 0,31 "
   id="polygon196"
   style="fill:#383530" />
                    <path
   d="M 41.5,15.5"
   id="path198"
   inkscape:connector-curvature="0"
   style="fill:#383530" />
                  </g>
                  <g
   id="g232">
                    <g
   id="g230">
                      <defs
   id="defs203">
                        <polygon
   points="0,30 83,30 83,31 0,31 "
   id="XMLID_1252_" />
                      </defs>
                      <use
   xlink:href="#XMLID_1252_"
   id="use205"
   style="fill:#131313"
   x="0"
   y="0"
   width="100%"
   height="100%" />
                      <clipPath
   id="XMLID_1272_">
                        <use
   xlink:href="#XMLID_1252_"
   id="use207"
   x="0"
   y="0"
   width="100%"
   height="100%" />
                      </clipPath>
                      <g
   clip-path="url(#XMLID_1272_)"
   id="g228">
                        <g
   id="g214">
                          <polygon
   points="0,0 88,0 88,31 0,31 "
   id="polygon210"
   style="fill:none" />
                          <path
   d="M 44,15.5"
   id="path212"
   inkscape:connector-curvature="0"
   style="fill:none" />
                        </g>
                        <g
   id="g220">
                          <polygon
   points="0,0 83,0 83,31 0,31 "
   id="polygon216"
   style="fill:#131313" />
                          <path
   d="M 41.5,15.5"
   id="path218"
   inkscape:connector-curvature="0"
   style="fill:#131313" />
                        </g>
                        <g
   id="g226">
                          <polygon
   points="0.366,0 36.809,0 36.809,31 0.366,31 "
   id="polygon222"
   style="fill:#131313" />
                          <path
   d="M 18.587,15.5"
   id="path224"
   inkscape:connector-curvature="0"
   style="fill:#131313" />
                        </g>
                      </g>
                    </g>
                  </g>
                </g>
              </g>
            </g>
          </g>
        </g>
      </g><g
   style="image-rendering:optimizeQuality;shape-rendering:geometricPrecision;text-rendering:geometricPrecision"
   id="g424">
        <g
   id="g422">
          <defs
   id="defs247">
            <polygon
   points="80.806,1 81.806,1 81.806,31 80.806,31 "
   id="XMLID_1254_" />
          </defs>
          <use
   xlink:href="#XMLID_1254_"
   id="use249"
   style="fill:#9e9c9c"
   x="0"
   y="0"
   width="100%"
   height="100%" />
          <clipPath
   id="XMLID_1273_">
            <use
   xlink:href="#XMLID_1254_"
   id="use251"
   x="0"
   y="0"
   width="100%"
   height="100%" />
          </clipPath>
          <g
   clip-path="url(#XMLID_1273_)"
   id="g420">
            <g
   id="g258">
              <polygon
   points="0,0 88,0 88,31 0,31 "
   id="polygon254"
   style="fill:none" />
              <path
   d="M 44,15.5"
   id="path256"
   inkscape:connector-curvature="0"
   style="fill:none" />
            </g>
            <g
   id="g264">
              <polygon
   points="0,0 83,0 83,31 0,31 "
   id="polygon260"
   style="fill:#b39f67" />
              <path
   d="M 41.5,15.5"
   id="path262"
   inkscape:connector-curvature="0"
   style="fill:#b39f67" />
            </g>
            <g
   id="g296">
              <g
   id="g294">
                <defs
   id="defs267">
                  <polygon
   points="0,30 83,30 83,31 0,31 "
   id="XMLID_1256_" />
                </defs>
                <use
   xlink:href="#XMLID_1256_"
   id="use269"
   style="fill:#383838"
   x="0"
   y="0"
   width="100%"
   height="100%" />
                <clipPath
   id="XMLID_1274_">
                  <use
   xlink:href="#XMLID_1256_"
   id="use271"
   x="0"
   y="0"
   width="100%"
   height="100%" />
                </clipPath>
                <g
   clip-path="url(#XMLID_1274_)"
   id="g292">
                  <g
   id="g278">
                    <polygon
   points="0,0 88,0 88,31 0,31 "
   id="polygon274"
   style="fill:none" />
                    <path
   d="M 44,15.5"
   id="path276"
   inkscape:connector-curvature="0"
   style="fill:none" />
                  </g>
                  <g
   id="g284">
                    <polygon
   points="0,0 83,0 83,31 0,31 "
   id="polygon280"
   style="fill:#383530" />
                    <path
   d="M 41.5,15.5"
   id="path282"
   inkscape:connector-curvature="0"
   style="fill:#383530" />
                  </g>
                  <g
   id="g290">
                    <polygon
   points="0.366,0 36.809,0 36.809,31 0.366,31 "
   id="polygon286"
   style="fill:#383838" />
                    <path
   d="M 18.587,15.5"
   id="path288"
   inkscape:connector-curvature="0"
   style="fill:#383838" />
                  </g>
                </g>
              </g>
            </g>
            <g
   id="g418">
              <g
   id="g416">
                <defs
   id="defs299">
                  <polygon
   points="2.16,29.005 82.16,29.005 82.16,30.005 2.16,30.005 "
   id="XMLID_1258_" />
                </defs>
                <use
   xlink:href="#XMLID_1258_"
   id="use301"
   style="fill:#818181"
   x="0"
   y="0"
   width="100%"
   height="100%" />
                <clipPath
   id="XMLID_1275_">
                  <use
   xlink:href="#XMLID_1258_"
   id="use303"
   x="0"
   y="0"
   width="100%"
   height="100%" />
                </clipPath>
                <g
   clip-path="url(#XMLID_1275_)"
   id="g414">
                  <g
   id="g310">
                    <polygon
   points="0,0 88,0 88,31 0,31 "
   id="polygon306"
   style="fill:none" />
                    <path
   d="M 44,15.5"
   id="path308"
   inkscape:connector-curvature="0"
   style="fill:none" />
                  </g>
                  <g
   id="g316">
                    <polygon
   points="0,0 83,0 83,31 0,31 "
   id="polygon312"
   style="fill:#807659" />
                    <path
   d="M 41.5,15.5"
   id="path314"
   inkscape:connector-curvature="0"
   style="fill:#807659" />
                  </g>
                  <g
   id="g322">
                    <polygon
   points="0.365,0 36.809,0 36.809,31 0.365,31 "
   id="polygon318"
   style="fill:#818181" />
                    <path
   d="M 18.587,15.5"
   id="path320"
   inkscape:connector-curvature="0"
   style="fill:#818181" />
                  </g>
                  <g
   id="g354">
                    <g
   id="g352">
                      <defs
   id="defs325">
                        <polygon
   points="0,30 83,30 83,31 0,31 "
   id="XMLID_1260_" />
                      </defs>
                      <use
   xlink:href="#XMLID_1260_"
   id="use327"
   style="fill:#272727"
   x="0"
   y="0"
   width="100%"
   height="100%" />
                      <clipPath
   id="XMLID_1276_">
                        <use
   xlink:href="#XMLID_1260_"
   id="use329"
   x="0"
   y="0"
   width="100%"
   height="100%" />
                      </clipPath>
                      <g
   clip-path="url(#XMLID_1276_)"
   id="g350">
                        <g
   id="g336">
                          <polygon
   points="0,0 88,0 88,31 0,31 "
   id="polygon332"
   style="fill:none" />
                          <path
   d="M 44,15.5"
   id="path334"
   inkscape:connector-curvature="0"
   style="fill:none" />
                        </g>
                        <g
   id="g342">
                          <polygon
   points="0,0 83,0 83,31 0,31 "
   id="polygon338"
   style="fill:#272623" />
                          <path
   d="M 41.5,15.5"
   id="path340"
   inkscape:connector-curvature="0"
   style="fill:#272623" />
                        </g>
                        <g
   id="g348">
                          <polygon
   points="0.366,0 36.809,0 36.809,31 0.366,31 "
   id="polygon344"
   style="fill:#272727" />
                          <path
   d="M 18.587,15.5"
   id="path346"
   inkscape:connector-curvature="0"
   style="fill:#272727" />
                        </g>
                      </g>
                    </g>
                  </g>
                  <g
   id="g412">
                    <g
   id="g410">
                      <defs
   id="defs357">
                        <polygon
   points="82,0 83,0 83,31 82,31 "
   id="XMLID_1262_" />
                      </defs>
                      <use
   xlink:href="#XMLID_1262_"
   id="use359"
   style="fill:#272727"
   x="0"
   y="0"
   width="100%"
   height="100%" />
                      <clipPath
   id="XMLID_1277_">
                        <use
   xlink:href="#XMLID_1262_"
   id="use361"
   x="0"
   y="0"
   width="100%"
   height="100%" />
                      </clipPath>
                      <g
   clip-path="url(#XMLID_1277_)"
   id="g408">
                        <g
   id="g368">
                          <polygon
   points="0,0 88,0 88,31 0,31 "
   id="polygon364"
   style="fill:none" />
                          <path
   d="M 44,15.5"
   id="path366"
   inkscape:connector-curvature="0"
   style="fill:none" />
                        </g>
                        <g
   id="g374">
                          <polygon
   points="0,0 83,0 83,31 0,31 "
   id="polygon370"
   style="fill:#272623" />
                          <path
   d="M 41.5,15.5"
   id="path372"
   inkscape:connector-curvature="0"
   style="fill:#272623" />
                        </g>
                        <g
   id="g406">
                          <g
   id="g404">
                            <defs
   id="defs377">
                              <polygon
   points="0,30 83,30 83,31 0,31 "
   id="XMLID_1264_" />
                            </defs>
                            <use
   xlink:href="#XMLID_1264_"
   id="use379"
   style="fill:#101010"
   x="0"
   y="0"
   width="100%"
   height="100%" />
                            <clipPath
   id="XMLID_1278_">
                              <use
   xlink:href="#XMLID_1264_"
   id="use381"
   x="0"
   y="0"
   width="100%"
   height="100%" />
                            </clipPath>
                            <g
   clip-path="url(#XMLID_1278_)"
   id="g402">
                              <g
   id="g388">
                                <polygon
   points="0,0 88,0 88,31 0,31 "
   id="polygon384"
   style="fill:none" />
                                <path
   d="M 44,15.5"
   id="path386"
   inkscape:connector-curvature="0"
   style="fill:none" />
                              </g>
                              <g
   id="g394">
                                <polygon
   points="0,0 83,0 83,31 0,31 "
   id="polygon390"
   style="fill:#101010" />
                                <path
   d="M 41.5,15.5"
   id="path392"
   inkscape:connector-curvature="0"
   style="fill:#101010" />
                              </g>
                              <g
   id="g400">
                                <polygon
   points="0.366,0 36.809,0 36.809,31 0.366,31 "
   id="polygon396"
   style="fill:#101010" />
                                <path
   d="M 18.587,15.5"
   id="path398"
   inkscape:connector-curvature="0"
   style="fill:#101010" />
                              </g>
                            </g>
                          </g>
                        </g>
                      </g>
                    </g>
                  </g>
                </g>
              </g>
            </g>
          </g>
        </g>
      </g><g
   style="image-rendering:optimizeQuality;shape-rendering:geometricPrecision;text-rendering:geometricPrecision"
   id="g430">
        <polygon
   points="0,0 83,0 83,1 0,1 "
   id="polygon426"
   style="fill:#cccccc" />
        <path
   d="M 41.5,0.5"
   id="path428"
   inkscape:connector-curvature="0"
   style="fill:#cccccc" />
      </g><g
   style="image-rendering:optimizeQuality;shape-rendering:geometricPrecision;text-rendering:geometricPrecision"
   id="g434">
        <polyline
   points="    68.273,18.844 74.291,24.348 86.001,12.637   "
   stroke-miterlimit="3.8637"
   id="polyline432"
   style="clip-rule:evenodd;fill:none;fill-rule:evenodd;stroke:#990000;stroke-width:4.81169987;stroke-miterlimit:3.86369991" />
      </g><g
   style="image-rendering:optimizeQuality;shape-rendering:geometricPrecision;text-rendering:geometricPrecision"
   id="g448">
        <g
   id="g440">
          <path
   d="m 33.077,7.037 0.334,2.034 -1.185,2.266 c 0,0 -0.455,-0.961 -1.21,-1.493 -0.636,-0.448 -1.051,-0.546 -1.699,-0.412 -0.833,0.172 -1.777,1.167 -2.189,2.395 -0.493,1.469 -0.498,2.18 -0.515,2.833 -0.028,1.047 0.137,1.665 0.137,1.665 0,0 -0.719,-1.33 -0.712,-3.279 0.005,-1.391 0.223,-2.652 0.867,-3.896 0.566,-1.094 1.407,-1.751 2.154,-1.828 0.772,-0.08 1.383,0.292 1.854,0.695 0.495,0.423 0.996,1.348 0.996,1.348 z"
   id="path436"
   inkscape:connector-curvature="0" />
          <path
   d="m 33.222,18.547 c 0,0 -0.523,0.936 -0.85,1.296 -0.327,0.36 -0.91,0.996 -1.63,1.313 -0.721,0.317 -1.099,0.378 -1.811,0.309 -0.712,-0.068 -1.373,-0.48 -1.605,-0.652 -0.231,-0.171 -0.824,-0.678 -1.159,-1.15 -0.335,-0.472 -0.858,-1.417 -0.858,-1.417 0,0 0.292,0.946 0.474,1.348 0.105,0.231 0.428,0.938 0.886,1.553 0.427,0.574 1.257,1.563 2.519,1.786 1.262,0.223 2.128,-0.343 2.343,-0.481 0.214,-0.137 0.667,-0.516 0.953,-0.822 0.299,-0.319 0.582,-0.727 0.738,-0.972 0.114,-0.179 0.301,-0.541 0.301,-0.541 z"
   id="path438"
   inkscape:connector-curvature="0" />
        </g>
        <g
   id="g446">
          <path
   d="m 11.437,7.127 2.852,9.698 2.852,-9.698 h 2.065 l -4.721,15.934 h -0.197 l -2.95,-9.875 -2.951,9.875 H 8.191 L 3.47,7.127 h 2.065 l 2.853,9.698 1.928,-6.531 -0.944,-3.167 z"
   id="path442"
   inkscape:connector-curvature="0"
   style="fill:#005a9c" />
          <path
   d="m 25.072,17.946 c 0,1.443 -0.384,2.656 -1.151,3.639 -0.767,0.983 -1.761,1.475 -2.98,1.475 -0.918,0 -1.718,-0.292 -2.4,-0.875 -0.682,-0.583 -1.187,-1.373 -1.515,-2.37 l 1.613,-0.669 c 0.236,0.604 0.548,1.079 0.935,1.426 0.387,0.348 0.843,0.521 1.367,0.521 0.551,0 1.016,-0.308 1.397,-0.924 0.38,-0.616 0.571,-1.357 0.571,-2.223 0,-0.958 -0.203,-1.699 -0.61,-2.223 -0.473,-0.616 -1.214,-0.924 -2.223,-0.924 h -0.787 v -0.944 l 2.754,-4.76 h -3.325 l -0.925,1.573 h -0.59 V 7.127 h 7.672 v 0.964 l -2.911,5.016 c 1.023,0.328 1.797,0.925 2.321,1.791 0.524,0.866 0.787,1.881 0.787,3.048 z"
   id="path444"
   inkscape:connector-curvature="0"
   style="fill:#005a9c" />
        </g>
      </g><g
   style="image-rendering:optimizeQuality;shape-rendering:geometricPrecision;text-rendering:geometricPrecision"
   id="g456">
        <path
   d="m 45.772,12.711 c -0.345,0.179 -0.705,0.314 -1.079,0.405 -0.375,0.091 -0.765,0.137 -1.172,0.137 -1.214,0 -2.176,-0.338 -2.886,-1.016 -0.71,-0.68 -1.064,-1.601 -1.064,-2.764 0,-1.165 0.354,-2.086 1.064,-2.764 0.709,-0.68 1.671,-1.02 2.886,-1.021 0.407,0 0.797,0.046 1.172,0.137 0.374,0.091 0.734,0.227 1.079,0.405 V 7.739 C 45.423,7.502 45.08,7.327 44.742,7.217 44.403,7.107 44.047,7.051 43.673,7.051 c -0.671,0 -1.198,0.215 -1.582,0.645 -0.384,0.43 -0.576,1.022 -0.576,1.777 0,0.752 0.192,1.343 0.576,1.772 0.384,0.43 0.911,0.645 1.582,0.645 0.374,0 0.73,-0.055 1.069,-0.166 0.338,-0.11 0.682,-0.285 1.03,-0.522 z"
   id="path450"
   inkscape:connector-curvature="0"
   style="clip-rule:evenodd;fill-rule:evenodd" />
        <path
   d="M 52.502,6.051 V 7.594 C 52.102,7.415 51.711,7.28 51.331,7.189 50.95,7.098 50.59,7.053 50.252,7.052 c -0.45,0 -0.781,0.062 -0.996,0.186 -0.215,0.124 -0.322,0.316 -0.322,0.576 0,0.195 0.071,0.349 0.214,0.459 0.146,0.107 0.411,0.2 0.792,0.278 l 0.8,0.161 c 0.811,0.163 1.387,0.41 1.729,0.742 0.342,0.332 0.513,0.804 0.513,1.416 0,0.804 -0.239,1.403 -0.717,1.797 -0.476,0.391 -1.203,0.586 -2.183,0.586 -0.462,0 -0.926,-0.044 -1.392,-0.132 -0.466,-0.088 -0.931,-0.218 -1.396,-0.391 v -1.587 c 0.465,0.248 0.915,0.435 1.347,0.562 0.437,0.124 0.856,0.186 1.26,0.186 0.41,0 0.724,-0.068 0.942,-0.205 0.218,-0.137 0.327,-0.332 0.327,-0.586 0,-0.228 -0.075,-0.403 -0.225,-0.527 -0.146,-0.124 -0.441,-0.234 -0.884,-0.332 L 49.334,10.08 C 48.605,9.924 48.071,9.675 47.732,9.333 47.397,8.991 47.23,8.531 47.23,7.951 c 0,-0.726 0.234,-1.284 0.703,-1.675 0.469,-0.391 1.143,-0.586 2.022,-0.586 0.4,0 0.812,0.031 1.235,0.093 0.422,0.058 0.86,0.148 1.312,0.268 z"
   id="path452"
   inkscape:connector-curvature="0"
   style="clip-rule:evenodd;fill-rule:evenodd" />
        <path
   d="M 59.805,6.051 V 7.594 C 59.405,7.415 59.014,7.28 58.633,7.189 58.252,7.098 57.892,7.053 57.554,7.052 c -0.449,0 -0.781,0.062 -0.996,0.186 -0.215,0.124 -0.322,0.316 -0.322,0.576 0,0.195 0.072,0.349 0.215,0.459 0.146,0.107 0.41,0.2 0.791,0.278 l 0.801,0.161 c 0.811,0.163 1.387,0.41 1.729,0.742 0.342,0.332 0.513,0.804 0.513,1.416 0,0.804 -0.239,1.403 -0.718,1.797 -0.475,0.391 -1.203,0.586 -2.183,0.586 -0.462,0 -0.926,-0.044 -1.392,-0.132 -0.466,-0.088 -0.931,-0.218 -1.396,-0.391 v -1.587 c 0.465,0.248 0.915,0.435 1.348,0.562 0.436,0.124 0.856,0.186 1.26,0.186 0.41,0 0.724,-0.068 0.942,-0.205 0.218,-0.137 0.327,-0.332 0.327,-0.586 0,-0.228 -0.075,-0.403 -0.225,-0.527 -0.146,-0.124 -0.441,-0.234 -0.884,-0.332 L 56.636,10.08 C 55.907,9.924 55.373,9.675 55.034,9.333 54.699,8.991 54.531,8.531 54.531,7.951 c 0,-0.726 0.234,-1.284 0.703,-1.675 0.469,-0.391 1.143,-0.586 2.021,-0.586 0.4,0 0.812,0.031 1.235,0.093 0.425,0.058 0.862,0.148 1.315,0.268 z"
   id="path454"
   inkscape:connector-curvature="0"
   style="clip-rule:evenodd;fill-rule:evenodd" />
      </g><g
   style="image-rendering:optimizeQuality;shape-rendering:geometricPrecision;text-rendering:geometricPrecision"
   id="g470">
        <rect
   height="5.3889999"
   width="1.24"
   y="18.764999"
   x="39.667999"
   id="rect460"
   style="clip-rule:evenodd;fill-rule:evenodd" />
        <path
   d="m 45.617,22.204 v 0.353 h -2.899 c 0.03,0.291 0.135,0.509 0.315,0.655 0.18,0.146 0.432,0.218 0.755,0.218 0.261,0 0.527,-0.038 0.8,-0.114 0.275,-0.079 0.557,-0.196 0.845,-0.354 v 0.956 c -0.293,0.111 -0.586,0.194 -0.879,0.249 -0.293,0.058 -0.587,0.086 -0.88,0.087 -0.702,0 -1.248,-0.178 -1.638,-0.534 -0.388,-0.357 -0.582,-0.858 -0.582,-1.503 0,-0.632 0.19,-1.13 0.571,-1.493 0.383,-0.362 0.91,-0.543 1.579,-0.543 0.609,0 1.097,0.184 1.461,0.55 0.368,0.368 0.552,0.858 0.552,1.473 z m -1.275,-0.412 c 0,-0.236 -0.069,-0.425 -0.208,-0.568 -0.136,-0.145 -0.315,-0.218 -0.537,-0.218 -0.24,0 -0.435,0.068 -0.585,0.204 -0.15,0.134 -0.244,0.328 -0.28,0.582 z"
   id="path462"
   inkscape:connector-curvature="0"
   style="clip-rule:evenodd;fill-rule:evenodd" />
        <polygon
   points="50.125,20.274 48.597,24.153 47.236,24.153 45.712,20.274 46.952,20.274 47.918,22.955 48.881,20.274 "
   id="polygon464"
   style="clip-rule:evenodd;fill-rule:evenodd" />
        <path
   d="m 54.341,22.204 v 0.353 h -2.899 c 0.03,0.291 0.135,0.509 0.315,0.655 0.18,0.146 0.432,0.218 0.755,0.218 0.261,0 0.527,-0.038 0.8,-0.114 0.275,-0.079 0.556,-0.196 0.845,-0.354 v 0.956 c -0.293,0.111 -0.586,0.194 -0.88,0.249 -0.293,0.058 -0.586,0.086 -0.88,0.087 -0.702,0 -1.248,-0.178 -1.638,-0.534 -0.388,-0.357 -0.582,-0.858 -0.582,-1.503 0,-0.632 0.19,-1.13 0.572,-1.493 0.383,-0.362 0.909,-0.543 1.579,-0.543 0.609,0 1.097,0.184 1.461,0.55 0.369,0.368 0.552,0.858 0.552,1.473 z m -1.275,-0.412 c 0,-0.236 -0.069,-0.425 -0.208,-0.568 -0.136,-0.145 -0.315,-0.218 -0.537,-0.218 -0.24,0 -0.436,0.068 -0.585,0.204 -0.15,0.134 -0.244,0.328 -0.281,0.582 z"
   id="path466"
   inkscape:connector-curvature="0"
   style="clip-rule:evenodd;fill-rule:evenodd" />
        <rect
   height="5.3889999"
   width="1.24"
   y="18.764999"
   x="54.924999"
   id="rect468"
   style="clip-rule:evenodd;fill-rule:evenodd" />
      </g><g
   style="image-rendering:optimizeQuality;shape-rendering:geometricPrecision;text-rendering:geometricPrecision"
   id="Calque_1">
    </g><g
   style="image-rendering:optimizeQuality;shape-rendering:geometricPrecision;text-rendering:geometricPrecision"
   id="Layer_1">
    </g>
<text
   xml:space="preserve"
   style="font-style:normal;font-weight:normal;font-size:9.33333302px;line-height:1.25;font-family:sans-serif;letter-spacing:0px;word-spacing:0px;fill:#000000;fill-opacity:1;stroke:none"
   x="57.159279"
   y="24.156818"
   id="text1292"><tspan
     sodipodi:role="line"
     id="tspan1290"
     x="57.159279"
     y="24.156818"
     style="font-style:normal;font-variant:normal;font-weight:bold;font-stretch:normal;font-size:10px;font-family:sans-serif;-inkscape-font-specification:'sans-serif Bold'">3</tspan></text>
</svg>